<?xml version="1.0" encoding="UTF-8" standalone="no"?>
<!-- Created with Inkscape (http://www.inkscape.org/) -->

<svg
   width="288"
   height="288"
   viewBox="0 0 288 288"
   version="1.1"
   id="svg1"
   inkscape:version="1.3.2 (091e20e, 2023-11-25, custom)"
   sodipodi:docname="castmate-plugin-icon.svg"
   xmlns:inkscape="http://www.inkscape.org/namespaces/inkscape"
   xmlns:sodipodi="http://sodipodi.sourceforge.net/DTD/sodipodi-0.dtd"
   xmlns:xlink="http://www.w3.org/1999/xlink"
   xmlns="http://www.w3.org/2000/svg"
   xmlns:svg="http://www.w3.org/2000/svg">
  <sodipodi:namedview
     id="namedview1"
     pagecolor="#ffffff"
     bordercolor="#000000"
     borderopacity="0.25"
     inkscape:showpageshadow="2"
     inkscape:pageopacity="0.0"
     inkscape:pagecheckerboard="0"
     inkscape:deskcolor="#d1d1d1"
     inkscape:document-units="px"
     inkscape:zoom="1.8101934"
     inkscape:cx="175.94806"
     inkscape:cy="131.47767"
     inkscape:window-width="1350"
     inkscape:window-height="1212"
     inkscape:window-x="3194"
     inkscape:window-y="508"
     inkscape:window-maximized="0"
     inkscape:current-layer="layer1" />
  <defs
     id="defs1">
    <linearGradient
       id="linearGradient1"
       inkscape:collect="always"
       inkscape:label="BrandGradient">
      <stop
         style="stop-color:#d654ff;stop-opacity:1;"
         offset="0"
         id="stop1" />
      <stop
         style="stop-color:#8659fe;stop-opacity:1;"
         offset="0.58672088"
         id="stop3" />
      <stop
         style="stop-color:#0860ff;stop-opacity:1;"
         offset="1"
         id="stop2" />
    </linearGradient>
    <linearGradient
       inkscape:collect="always"
       xlink:href="#linearGradient1"
       id="linearGradient2"
       x1="102.20312"
       y1="288.53125"
       x2="102.20312"
       y2="0.24999894"
       gradientUnits="userSpaceOnUse" />
  </defs>
  <g
     inkscape:label="Layer 1"
     inkscape:groupmode="layer"
     id="layer1">
    <rect
       style="fill:url(#linearGradient2);stroke-width:0.264583"
       id="rect1"
       width="288"
       height="288"
       x="0"
       y="0" />
    <g
       id="g2"
       transform="matrix(0.34434197,0,0,0.36334927,27.009898,45.314098)">
      <path
         class="st0"
         d="m 84.04426,439.8242 c -35.02,5.03 -68.19,-18.26 -75.03,-53.37 l -8.04,-41.25 c -3.81,-19.58 3.82,-38.75 18.25,-50.56 0.48,2.94 1.01,5.88 1.58,8.79 9.73,49.97 31.54,96.96 63.24,136.39 z"
         id="path19"
         style="fill:#ffffff;fill-opacity:1" />
      <path
         class="st1"
         d="m 670.21426,214.8142 8.04,41.25 c 6.84,35.11 -15.17,69.15 -49.52,77.64 14.58,-48.44 17.15,-100.18 7.42,-150.15 -0.56,-2.88 -1.17,-5.81 -1.83,-8.74 6.79,2.1 13.05,5.57 18.43,10.14 8.73,7.41 15.09,17.74 17.46,29.86 z"
         id="path36"
         style="fill:#ffffff;fill-opacity:1" />
      <path
         class="st2"
         d="m 620.46426,176.0942 c -0.28,-1.21 -0.56,-2.42 -0.86,-3.63 -4.78,-19.66 -11.42,-38.41 -19.7,-56.13 -26.35,-6.21 -53.16,-10.97 -80.32,-14.22 -71,-8.48 -144.42,-6.57 -218.35,7.02 l -3.56,-43.11 c 12.2,-7.6 19.07,-22.19 16.16,-37.14 -1.73,-8.86 -6.6,-16.31 -13.23,-21.43 -7.84,-6.06 -18.16,-8.83 -28.65,-6.79 -11.55,2.25 -20.7,9.83 -25.41,19.69 -3.18,6.67 -4.33,14.38 -2.81,22.18 2.91,14.95 14.76,25.89 28.91,28.36 l 12.89,41.29 c -65.99,13.59 -128.09,35.72 -185.36,65.02 -24.36,12.46 -47.86,26.22 -70.4,41.17 -1.75,20.97 -1.3,42.4 1.55,64 0.2,1.52 0.41,3.03 0.64,4.56 0.68,4.61 1.47,9.23 2.37,13.85 10.14,52.04 33.18,98.3 65.16,136.09 67.84,80.17 175.88,122.25 286.28,100.74 110.4,-21.51 194.75,-101.08 227.52,-200.84 15.45,-47.04 19.45,-98.56 9.31,-150.6 -0.65,-3.37 -1.37,-6.74 -2.14,-10.08 z m -80.01,174.89 c -32.02,63.05 -91.73,111.22 -166.53,125.79 -74.8,14.57 -148.22,-7.65 -201.57,-54.08 -38.55,-33.53 -66.63,-79.71 -77.16,-133.76 -0.97,-5 -1.78,-9.99 -2.43,-14.97 -1.23,-9.49 -1.89,-18.94 -1.98,-28.31 19.33,-10.69 39.25,-20.55 59.72,-29.52 10.88,45.27 55.62,74.34 101.78,65.34 l 143.35,-27.93 c 46.15,-8.99 76.71,-52.73 69.8,-98.77 29.18,0.82 58.05,3.4 86.51,7.65 2.45,6.78 4.61,13.71 6.46,20.81 1.26,4.86 2.39,9.79 3.36,14.79 10.52,54.07 1.83,107.41 -21.31,152.96 z"
         id="path55"
         style="fill:#ffffff;fill-opacity:1" />
      <path
         class="st4"
         d="m 311.70426,355.5542 c 6.4,32.86 -7.33,63.19 -30.67,67.73 -23.34,4.55 -47.45,-18.41 -53.85,-51.27 -6.4,-32.86 7.33,-63.19 30.67,-67.74 23.34,-4.54 47.45,18.41 53.85,51.28 z"
         id="path89"
         style="fill:#ffffff;fill-opacity:1" />
      <path
         class="st5"
         d="m 470.60426,324.5942 c 6.4,32.86 -7.33,63.19 -30.67,67.73 -23.34,4.54 -47.45,-18.41 -53.85,-51.27 -6.4,-32.86 7.33,-63.19 30.67,-67.74 23.34,-4.54 47.45,18.42 53.85,51.28 z"
         id="path106"
         style="fill:#ffffff;fill-opacity:1" />
    </g>
  </g>
</svg>
